# xmcd
#
# Track frame offsets: 
#        150
#        19532
#        43195
#        65555
#        85332
#        109452
#        130507
#        150345
#
# Disc length: 2268 seconds
#
# Revision: 3
# Processed by: cddbd v1.5.2PL0 Copyright (c) Steve Scherf et al.
# Submitted via: ExactAudioCopy v0.99pb5
#
DISCID=5f08da08
DTITLE=Anthony Cruz - Anthony Cruz
DYEAR=1996
DGENRE=Salsa
TTITLE0=Cuanto Te Amo
TTITLE1=Dime Como
TTITLE2=La Quiero
TTITLE3=Tan Simple Como Eso
TTITLE4=Punto Final
TTITLE5=A Mi Modo
TTITLE6=Todo Pasa
TTITLE7=Mendigo de Amor
EXTD=YEAR: 1996
EXTT0=
EXTT1=
EXTT2=
EXTT3=
EXTT4=
EXTT5=
EXTT6=
EXTT7=
PLAYORDER=
